<svg xmlns="http://www.w3.org/2000/svg" width="603.4" height="92.1" viewBox="1.9 26.1 603.4 92.1"><path d="M29.8 116.2L29.8 116.2Q19.3 116.2 13.3 112Q7.3 107.8 5.5 101L5.5 101L18.7 100.1Q19.7 103.2 22.15 104.85Q24.6 106.5 29.8 106.5L29.8 106.5Q35.7 106.5 38.9 103.85Q42.1 101.2 42.1 95.6L42.1 95.6L42.1 88.8Q40.2 92.7 36 95.05Q31.8 97.4 26.6 97.4L26.6 97.4Q20 97.4 14.85 94.15Q9.7 90.9 6.8 85.05Q3.9 79.2 3.9 71.5L3.9 71.5Q3.9 63.8 6.8 57.95Q9.7 52.1 14.75 48.75Q19.8 45.4 26.4 45.4L26.4 45.4Q32.1 45.4 36.3 48Q40.5 50.6 42.5 54.9L42.5 54.9L42.5 46.6L55 46.6L55 95.3Q55 105.6 48.1 110.9Q41.2 116.2 29.8 116.2M29.6 87.4L29.6 87.4Q35.3 87.4 38.75 83.15Q42.2 78.9 42.2 71.4L42.2 71.4Q42.3 64 38.85 59.7Q35.4 55.4 29.6 55.4L29.6 55.4Q23.7 55.4 20.45 59.75Q17.2 64.1 17.2 71.4L17.2 71.4Q17.2 78.7 20.55 83.05Q23.9 87.4 29.6 87.4M85.2 100L77.3 100Q71.4 100 67.95 97Q64.5 94 64.5 87.4L64.5 87.4L64.5 29L77.3 29L77.3 86.1Q77.3 90.1 81.3 90.1L81.3 90.1L85.2 90.1L85.2 100M112.1 101.2L112.1 101.2Q104.2 101.2 98.25 97.75Q92.3 94.3 89.05 88.05Q85.8 81.8 85.8 73.3L85.8 73.3Q85.8 64.8 89.05 58.55Q92.3 52.3 98.25 48.85Q104.2 45.4 112.1 45.4L112.1 45.4Q120 45.4 125.9 48.85Q131.8 52.3 135.05 58.55Q138.3 64.8 138.3 73.3L138.3 73.3Q138.3 81.8 135.05 88.05Q131.8 94.3 125.9 97.75Q120 101.2 112.1 101.2M112.1 90.8L112.1 90.8Q118.2 90.8 121.6 86.2Q125 81.6 125 73.3L125 73.3Q125 65 121.6 60.4Q118.2 55.8 112.1 55.8L112.1 55.8Q105.9 55.8 102.5 60.4Q99.1 65 99.1 73.3L99.1 73.3Q99.1 81.6 102.5 86.2Q105.9 90.8 112.1 90.8M172.4 101.2L172.4 101.2Q166.8 101.2 162.6 98.8Q158.4 96.4 156.2 92.1L156.2 92.1L155.9 100L143.7 100L143.7 29L156.5 29L156.5 54.2Q158.6 50.6 162.75 48Q166.9 45.4 172.4 45.4L172.4 45.4Q179.3 45.4 184.35 48.85Q189.4 52.3 192.15 58.55Q194.9 64.8 194.9 73.3L194.9 73.3Q194.9 81.8 192.15 88.05Q189.4 94.3 184.35 97.75Q179.3 101.2 172.4 101.2M169.5 90.8L169.5 90.8Q175 90.8 178.3 86.15Q181.6 81.5 181.6 73.3L181.6 73.3Q181.6 65 178.35 60.4Q175.1 55.8 169.6 55.8L169.6 55.8Q163.4 55.8 159.95 60.4Q156.5 65 156.5 73.3L156.5 73.3Q156.5 81.5 159.95 86.15Q163.4 90.8 169.5 90.8M216.6 101.2L216.6 101.2Q208.2 101.2 203.1 97.4Q198 93.6 198 86.6L198 86.6Q198 79.7 202.3 75.8Q206.6 71.9 215.4 70.2L215.4 70.2L233.1 66.7Q233.1 55.3 222.8 55.3L222.8 55.3Q218.2 55.3 215.5 57.45Q212.8 59.6 211.9 63.6L211.9 63.6L198.9 63Q200.5 54.6 206.7 50Q212.9 45.4 222.8 45.4L222.8 45.4Q234.2 45.4 240.05 51.15Q245.9 56.9 245.9 67.6L245.9 67.6L245.9 87Q245.9 89.1 246.65 89.9Q247.4 90.7 248.9 90.7L248.9 90.7L250.6 90.7L250.6 100Q248.9 100.4 245.9 100.4L245.9 100.4Q241.6 100.4 238.6 98.6Q235.6 96.8 234.8 91.9L234.8 91.9L234.8 91.8Q232.8 96 227.95 98.6Q223.1 101.2 216.6 101.2M219.2 91.9L219.2 91.9Q225.6 91.9 229.35 88.2Q233.1 84.5 233.1 78.4L233.1 78.4L233.1 75.4L219.3 78.2Q215 79.1 213.15 80.85Q211.3 82.6 211.3 85.4L211.3 85.4Q211.3 91.9 219.2 91.9M274.3 100L266.4 100Q260.5 100 257.05 97Q253.6 94 253.6 87.4L253.6 87.4L253.6 29L266.4 29L266.4 86.1Q266.4 90.1 270.4 90.1L270.4 90.1L274.3 90.1L274.3 100M290.8 100L278 100L278 46.6L290.8 46.6L290.8 100M291.1 39.5L277.8 39.5L277.8 28.1L291.1 28.1L291.1 39.5M344.1 100L297.4 100L297.4 89.4L328.3 56.5L298.6 56.5L298.6 46.6L343.4 46.6L343.4 57.2L312.2 90.1L344.1 90.1L344.1 100M371.7 101.2L371.7 101.2Q363.7 101.2 357.8 97.75Q351.9 94.3 348.7 88Q345.5 81.7 345.5 73.3L345.5 73.3Q345.5 64.9 348.7 58.6Q351.9 52.3 357.75 48.85Q363.6 45.4 371.4 45.4L371.4 45.4Q379 45.4 384.7 48.8Q390.4 52.2 393.55 58.6Q396.7 65 396.7 74L396.7 74L396.7 76.9L358.8 76.9Q359.1 83.9 362.6 87.45Q366.1 91 371.8 91L371.8 91Q380.5 91 382.9 83.6L382.9 83.6L396 84.4Q393.8 92.2 387.35 96.7Q380.9 101.2 371.7 101.2M358.8 68.3L358.8 68.3L383.5 68.3Q383 61.8 379.75 58.65Q376.5 55.5 371.4 55.5L371.4 55.5Q366.2 55.5 362.9 58.8Q359.6 62.1 358.8 68.3" fill="#FAFAFA"/><path d="M414.7 100L400.1 100L400.1 86L414.7 86L414.7 100M434 100L421.2 100L421.2 46.6L432.8 46.6L433.1 55.7Q435.3 50.2 439.55 47.8Q443.8 45.4 449.1 45.4L449.1 45.4Q457.9 45.4 462.6 51.05Q467.3 56.7 467.3 65.7L467.3 65.7L467.3 100L454.5 100L454.5 69.8Q454.5 63 452.45 59.4Q450.4 55.8 445.2 55.8L445.2 55.8Q440 55.8 437 59.4Q434 63 434 69.8L434 69.8L434 100M498.7 101.2L498.7 101.2Q490.8 101.2 484.85 97.75Q478.9 94.3 475.65 88.05Q472.4 81.8 472.4 73.3L472.4 73.3Q472.4 64.8 475.65 58.55Q478.9 52.3 484.85 48.85Q490.8 45.4 498.7 45.4L498.7 45.4Q506.6 45.4 512.5 48.85Q518.4 52.3 521.65 58.55Q524.9 64.8 524.9 73.3L524.9 73.3Q524.9 81.8 521.65 88.05Q518.4 94.3 512.5 97.75Q506.6 101.2 498.7 101.2M498.7 90.8L498.7 90.8Q504.8 90.8 508.2 86.2Q511.6 81.6 511.6 73.3L511.6 73.3Q511.6 65 508.2 60.4Q504.8 55.8 498.7 55.8L498.7 55.8Q492.5 55.8 489.1 60.4Q485.7 65 485.7 73.3L485.7 73.3Q485.7 81.6 489.1 86.2Q492.5 90.8 498.7 90.8M552.9 100L539.7 100L523.6 46.6L536.7 46.6L547.1 85.5L557.8 46.6L569 46.6L579.8 85.5L590.2 46.6L603.3 46.6L587.2 100L574 100L563.4 64.2L552.9 100" fill="#8B5CF6"/></svg>
